<svg xmlns="http://www.w3.org/2000/svg" viewBox="0 0 32 32" fill="none">
  <rect x="3" y="2" width="26" height="28" rx="3" fill="#2563EB"/>
  <rect x="6" y="6" width="9" height="1.5" rx=".75" fill="#fff" opacity=".95"/>
  <rect x="6" y="9.5" width="9" height="1.2" rx=".6" fill="#fff" opacity=".6"/>
  <rect x="6" y="12.5" width="9" height="1.2" rx=".6" fill="#fff" opacity=".6"/>
  <rect x="6" y="15.5" width="9" height="1.2" rx=".6" fill="#fff" opacity=".6"/>
  <rect x="6" y="18.5" width="7" height="1.2" rx=".6" fill="#fff" opacity=".6"/>
  <rect x="6" y="22" width="9" height="1.5" rx=".75" fill="#fff" opacity=".95"/>
  <rect x="6" y="25.5" width="9" height="1.2" rx=".6" fill="#fff" opacity=".6"/>
  <rect x="17" y="6" width="9" height="1.5" rx=".75" fill="#fff" opacity=".95"/>
  <rect x="17" y="9.5" width="9" height="1.2" rx=".6" fill="#fff" opacity=".6"/>
  <rect x="17" y="12.5" width="9" height="1.2" rx=".6" fill="#fff" opacity=".6"/>
  <rect x="17" y="15.5" width="7" height="1.2" rx=".6" fill="#fff" opacity=".6"/>
  <rect x="17" y="19" width="9" height="1.5" rx=".75" fill="#fff" opacity=".95"/>
  <rect x="17" y="22.5" width="9" height="1.2" rx=".6" fill="#fff" opacity=".6"/>
  <rect x="17" y="25.5" width="9" height="1.2" rx=".6" fill="#fff" opacity=".6"/>
</svg>
